# xmcd
#
# Track frame offsets:
#	150
#	21011
#	48171
#	68464
#	103980
#	123499
#	155849
#	197583
#	227762
#
# Disc length: 3430 seconds
#
# Revision: 1
# Processed by: cddbd v1.5.2PL0 Copyright (c) Steve Scherf et al.
# Submitted via: audiograbber 1.83.01
#
DISCID=720d6409
DTITLE=Eric Clapton - One more car one more rider live tour 2001 CD2
DYEAR=2001
DGENRE=Blues
TTITLE0=I want a little girl
TTITLE1=Badge
TTITLE2=Hoochie Goochie Man
TTITLE3=Have you ever loved a woman?
TTITLE4=Cocaine
TTITLE5=Wonderful tonight
TTITLE6=Layla
TTITLE7=Sunshine of your love
TTITLE8=Over the rainbow
EXTD=
EXTT0=
EXTT1=
EXTT2=
EXTT3=
EXTT4=
EXTT5=
EXTT6=
EXTT7=
EXTT8=
PLAYORDER=
